<svg id="my-svg" width="100%" xmlns="http://www.w3.org/2000/svg" xmlns:xlink="http://www.w3.org/1999/xlink" class="statediagram" style="max-width: 1081.21px; background-color: white;" viewBox="0 0 1081.2109375 1104" role="graphics-document document" aria-roledescription="stateDiagram"><style>#my-svg{font-family:"trebuchet ms",verdana,arial,sans-serif;font-size:16px;fill:#333;}@keyframes edge-animation-frame{from{stroke-dashoffset:0;}}@keyframes dash{to{stroke-dashoffset:0;}}#my-svg .edge-animation-slow{stroke-dasharray:9,5!important;stroke-dashoffset:900;animation:dash 50s linear infinite;stroke-linecap:round;}#my-svg .edge-animation-fast{stroke-dasharray:9,5!important;stroke-dashoffset:900;animation:dash 20s linear infinite;stroke-linecap:round;}#my-svg .error-icon{fill:#552222;}#my-svg .error-text{fill:#552222;stroke:#552222;}#my-svg .edge-thickness-normal{stroke-width:1px;}#my-svg .edge-thickness-thick{stroke-width:3.5px;}#my-svg .edge-pattern-solid{stroke-dasharray:0;}#my-svg .edge-thickness-invisible{stroke-width:0;fill:none;}#my-svg .edge-pattern-dashed{stroke-dasharray:3;}#my-svg .edge-pattern-dotted{stroke-dasharray:2;}#my-svg .marker{fill:#333333;stroke:#333333;}#my-svg .marker.cross{stroke:#333333;}#my-svg svg{font-family:"trebuchet ms",verdana,arial,sans-serif;font-size:16px;}#my-svg p{margin:0;}#my-svg defs [id$="-barbEnd"]{fill:#333333;stroke:#333333;}#my-svg g.stateGroup text{fill:#9370DB;stroke:none;font-size:10px;}#my-svg g.stateGroup text{fill:#333;stroke:none;font-size:10px;}#my-svg g.stateGroup .state-title{font-weight:bolder;fill:#131300;}#my-svg g.stateGroup rect{fill:#ECECFF;stroke:#9370DB;}#my-svg g.stateGroup line{stroke:#333333;stroke-width:1;}#my-svg .transition{stroke:#333333;stroke-width:1;fill:none;}#my-svg .stateGroup .composit{fill:white;border-bottom:1px;}#my-svg .stateGroup .alt-composit{fill:#e0e0e0;border-bottom:1px;}#my-svg .state-note{stroke:#aaaa33;fill:#fff5ad;}#my-svg .state-note text{fill:black;stroke:none;font-size:10px;}#my-svg .stateLabel .box{stroke:none;stroke-width:0;fill:#ECECFF;opacity:0.5;}#my-svg .edgeLabel .label rect{fill:#ECECFF;opacity:0.5;}#my-svg .edgeLabel{background-color:rgba(232,232,232, 0.8);text-align:center;}#my-svg .edgeLabel p{background-color:rgba(232,232,232, 0.8);}#my-svg .edgeLabel rect{opacity:0.5;background-color:rgba(232,232,232, 0.8);fill:rgba(232,232,232, 0.8);}#my-svg .edgeLabel .label text{fill:#333;}#my-svg .label div .edgeLabel{color:#333;}#my-svg .stateLabel text{fill:#131300;font-size:10px;font-weight:bold;}#my-svg .node circle.state-start{fill:#333333;stroke:#333333;}#my-svg .node .fork-join{fill:#333333;stroke:#333333;}#my-svg .node circle.state-end{fill:#9370DB;stroke:white;stroke-width:1.5;}#my-svg .end-state-inner{fill:white;stroke-width:1.5;}#my-svg .node rect{fill:#ECECFF;stroke:#9370DB;stroke-width:1px;}#my-svg .node polygon{fill:#ECECFF;stroke:#9370DB;stroke-width:1px;}#my-svg [id$="-barbEnd"]{fill:#333333;}#my-svg .statediagram-cluster rect{fill:#ECECFF;stroke:#9370DB;stroke-width:1px;}#my-svg .cluster-label,#my-svg .nodeLabel{color:#131300;}#my-svg .statediagram-cluster rect.outer{rx:5px;ry:5px;}#my-svg .statediagram-state .divider{stroke:#9370DB;}#my-svg .statediagram-state .title-state{rx:5px;ry:5px;}#my-svg .statediagram-cluster.statediagram-cluster .inner{fill:white;}#my-svg .statediagram-cluster.statediagram-cluster-alt .inner{fill:#f0f0f0;}#my-svg .statediagram-cluster .inner{rx:0;ry:0;}#my-svg .statediagram-state rect.basic{rx:5px;ry:5px;}#my-svg .statediagram-state rect.divider{stroke-dasharray:10,10;fill:#f0f0f0;}#my-svg .note-edge{stroke-dasharray:5;}#my-svg .statediagram-note rect{fill:#fff5ad;stroke:#aaaa33;stroke-width:1px;rx:0;ry:0;}#my-svg .statediagram-note rect{fill:#fff5ad;stroke:#aaaa33;stroke-width:1px;rx:0;ry:0;}#my-svg .statediagram-note text{fill:black;}#my-svg .statediagram-note .nodeLabel{color:black;}#my-svg .statediagram .edgeLabel{color:red;}#my-svg [id$="-dependencyStart"],#my-svg [id$="-dependencyEnd"]{fill:#333333;stroke:#333333;stroke-width:1;}#my-svg .statediagramTitleText{text-anchor:middle;font-size:18px;fill:#333;}#my-svg [data-look="neo"].statediagram-cluster rect{fill:#ECECFF;stroke:#9370DB;stroke-width:1;}#my-svg [data-look="neo"].statediagram-cluster rect.outer{rx:5px;ry:5px;filter:drop-shadow(1px 2px 2px rgba(185, 185, 185, 1));}#my-svg .node .neo-node{stroke:#9370DB;}#my-svg [data-look="neo"].node rect,#my-svg [data-look="neo"].cluster rect,#my-svg [data-look="neo"].node polygon{stroke:#9370DB;filter:drop-shadow(1px 2px 2px rgba(185, 185, 185, 1));}#my-svg [data-look="neo"].node path{stroke:#9370DB;stroke-width:1px;}#my-svg [data-look="neo"].node .outer-path{filter:drop-shadow(1px 2px 2px rgba(185, 185, 185, 1));}#my-svg [data-look="neo"].node .neo-line path{stroke:#9370DB;filter:none;}#my-svg [data-look="neo"].node circle{stroke:#9370DB;filter:drop-shadow(1px 2px 2px rgba(185, 185, 185, 1));}#my-svg [data-look="neo"].node circle .state-start{fill:#000000;}#my-svg [data-look="neo"].icon-shape .icon{fill:#9370DB;filter:drop-shadow(1px 2px 2px rgba(185, 185, 185, 1));}#my-svg [data-look="neo"].icon-shape .icon-neo path{stroke:#9370DB;filter:drop-shadow(1px 2px 2px rgba(185, 185, 185, 1));}#my-svg :root{--mermaid-font-family:"trebuchet ms",verdana,arial,sans-serif;}</style><g><defs><marker id="my-svg_stateDiagram-barbEnd" refX="19" refY="7" markerWidth="20" markerHeight="14" markerUnits="userSpaceOnUse" orient="auto"><path d="M 19,7 L9,13 L14,7 L9,1 Z"/></marker></defs><g class="root"><g class="clusters"/><g class="edgePaths"><path d="M576.672,22L576.672,26.167C576.672,30.333,576.672,38.667,576.672,47C576.672,55.333,576.672,63.667,576.672,67.833L576.672,72" id="my-svg-edge0" class="edge-thickness-normal edge-pattern-solid transition" style="fill:none;;;fill:none" data-edge="true" data-et="edge" data-id="edge0" data-points="W3sieCI6NTc2LjY3MTg3NSwieSI6MjJ9LHsieCI6NTc2LjY3MTg3NSwieSI6NDd9LHsieCI6NTc2LjY3MTg3NSwieSI6NzJ9XQ==" data-look="classic" marker-end="url(#my-svg_stateDiagram-barbEnd)"/><path d="M542.883,96.883L468.934,107.569C394.984,118.255,247.086,139.628,173.137,161.814C99.188,184,99.188,207,99.188,226C99.188,245,99.188,260,99.188,275C99.188,290,99.188,305,99.188,322C99.188,339,99.188,358,99.188,377C99.188,396,99.188,415,99.188,432C99.188,449,99.188,464,99.188,476.333C99.188,488.667,99.188,498.333,99.188,503.167L99.188,508" id="my-svg-edge1" class="edge-thickness-normal edge-pattern-solid transition" style="fill:none;;;fill:none" data-edge="true" data-et="edge" data-id="edge1" data-points="W3sieCI6NTQyLjg4MjgxMjUsInkiOjk2Ljg4Mjc2Nzc2MDcyNTE2fSx7IngiOjk5LjE4NzUsInkiOjE2MX0seyJ4Ijo5OS4xODc1LCJ5IjoyMzB9LHsieCI6OTkuMTg3NSwieSI6Mjc1fSx7IngiOjk5LjE4NzUsInkiOjMyMH0seyJ4Ijo5OS4xODc1LCJ5IjozNzd9LHsieCI6OTkuMTg3NSwieSI6NDM0fSx7IngiOjk5LjE4NzUsInkiOjQ3OX0seyJ4Ijo5OS4xODc1LCJ5Ijo1MDh9XQ==" data-look="classic" marker-end="url(#my-svg_stateDiagram-barbEnd)"/><path d="M542.883,99.994L499.904,110.161C456.924,120.329,370.966,140.665,327.987,162.332C285.008,184,285.008,207,285.008,226C285.008,245,285.008,260,285.008,271.667C285.008,283.333,285.008,291.667,285.008,295.833L285.008,300" id="my-svg-edge2" class="edge-thickness-normal edge-pattern-solid transition" style="fill:none;;;fill:none" data-edge="true" data-et="edge" data-id="edge2" data-points="W3sieCI6NTQyLjg4MjgxMjUsInkiOjk5Ljk5MzU5ODE1NzEyNjR9LHsieCI6Mjg1LjAwNzgxMjUsInkiOjE2MX0seyJ4IjoyODUuMDA3ODEyNSwieSI6MjMwfSx7IngiOjI4NS4wMDc4MTI1LCJ5IjoyNzV9LHsieCI6Mjg1LjAwNzgxMjUsInkiOjMwMH1d" data-look="classic" marker-end="url(#my-svg_stateDiagram-barbEnd)"/><path d="M579.296,112L580.368,120.167C581.44,128.333,583.583,144.667,584.655,161C585.727,177.333,585.727,193.667,585.727,201.833L585.727,210" id="my-svg-edge3" class="edge-thickness-normal edge-pattern-solid transition" style="fill:none;;;fill:none" data-edge="true" data-et="edge" data-id="edge3" data-points="W3sieCI6NTc5LjI5NjQyMjEwMTQ0OTMsInkiOjExMn0seyJ4Ijo1ODUuNzI2NTYyNSwieSI6MTYxfSx7IngiOjU4NS43MjY1NjI1LCJ5IjoyMTB9XQ==" data-look="classic" marker-end="url(#my-svg_stateDiagram-barbEnd)"/><path d="M610.461,103.615L638.285,113.179C666.109,122.743,721.758,141.872,749.582,162.936C777.406,184,777.406,207,777.406,226C777.406,245,777.406,260,777.406,275C777.406,290,777.406,305,777.406,322C777.406,339,777.406,358,777.406,377C777.406,396,777.406,415,777.406,432C777.406,449,777.406,464,777.406,476.333C777.406,488.667,777.406,498.333,777.406,503.167L777.406,508" id="my-svg-edge4" class="edge-thickness-normal edge-pattern-solid transition" style="fill:none;;;fill:none" data-edge="true" data-et="edge" data-id="edge4" data-points="W3sieCI6NjEwLjQ2MDkzNzUsInkiOjEwMy42MTQ1NzkyNzkyMDkxNX0seyJ4Ijo3NzcuNDA2MjUsInkiOjE2MX0seyJ4Ijo3NzcuNDA2MjUsInkiOjIzMH0seyJ4Ijo3NzcuNDA2MjUsInkiOjI3NX0seyJ4Ijo3NzcuNDA2MjUsInkiOjMyMH0seyJ4Ijo3NzcuNDA2MjUsInkiOjM3N30seyJ4Ijo3NzcuNDA2MjUsInkiOjQzNH0seyJ4Ijo3NzcuNDA2MjUsInkiOjQ3OX0seyJ4Ijo3NzcuNDA2MjUsInkiOjUwOH1d" data-look="classic" marker-end="url(#my-svg_stateDiagram-barbEnd)"/><path d="M610.461,97.879L670.919,108.4C731.378,118.92,852.294,139.96,912.753,161.98C973.211,184,973.211,207,973.211,226C973.211,245,973.211,260,973.211,275C973.211,290,973.211,305,973.211,322C973.211,339,973.211,358,973.211,377C973.211,396,973.211,415,973.211,432C973.211,449,973.211,464,973.211,479.667C973.211,495.333,973.211,511.667,973.211,528C973.211,544.333,973.211,560.667,973.211,576.333C973.211,592,973.211,607,973.211,624C973.211,641,973.211,660,973.211,679C973.211,698,973.211,717,973.211,734C973.211,751,973.211,766,973.211,781C973.211,796,973.211,811,973.211,830C973.211,849,973.211,872,934.898,893.134C896.585,914.267,819.958,933.534,781.645,943.168L743.332,952.801" id="my-svg-edge5" class="edge-thickness-normal edge-pattern-solid transition" style="fill:none;;;fill:none" data-edge="true" data-et="edge" data-id="edge5" data-points="W3sieCI6NjEwLjQ2MDkzNzUsInkiOjk3Ljg3OTQ4NDYwMzEwODkzfSx7IngiOjk3My4yMTA5Mzc1LCJ5IjoxNjF9LHsieCI6OTczLjIxMDkzNzUsInkiOjIzMH0seyJ4Ijo5NzMuMjEwOTM3NSwieSI6Mjc1fSx7IngiOjk3My4yMTA5Mzc1LCJ5IjozMjB9LHsieCI6OTczLjIxMDkzNzUsInkiOjM3N30seyJ4Ijo5NzMuMjEwOTM3NSwieSI6NDM0fSx7IngiOjk3My4yMTA5Mzc1LCJ5Ijo0Nzl9LHsieCI6OTczLjIxMDkzNzUsInkiOjUyOH0seyJ4Ijo5NzMuMjEwOTM3NSwieSI6NTc3fSx7IngiOjk3My4yMTA5Mzc1LCJ5Ijo2MjJ9LHsieCI6OTczLjIxMDkzNzUsInkiOjY3OX0seyJ4Ijo5NzMuMjEwOTM3NSwieSI6NzM2fSx7IngiOjk3My4yMTA5Mzc1LCJ5Ijo3ODF9LHsieCI6OTczLjIxMDkzNzUsInkiOjgyNn0seyJ4Ijo5NzMuMjEwOTM3NSwieSI6ODk1fSx7IngiOjc0My4zMzIwMzEyNSwieSI6OTUyLjgwMTA0MTk3ODA1MDF9XQ==" data-look="classic" marker-end="url(#my-svg_stateDiagram-barbEnd)"/><path d="M99.188,548L99.188,552.833C99.188,557.667,99.188,567.333,137.787,578.123C176.387,588.912,253.586,600.824,292.186,606.78L330.785,612.736" id="my-svg-edge6" class="edge-thickness-normal edge-pattern-solid transition" style="fill:none;;;fill:none" data-edge="true" data-et="edge" data-id="edge6" data-points="W3sieCI6OTkuMTg3NSwieSI6NTQ4fSx7IngiOjk5LjE4NzUsInkiOjU3N30seyJ4IjozMzAuNzg1MTU2MjUsInkiOjYxMi43MzU4NzkxMzA0NDY0fV0=" data-look="classic" marker-end="url(#my-svg_stateDiagram-barbEnd)"/><path d="M285.008,340L285.008,346.167C285.008,352.333,285.008,364.667,285.008,377C285.008,389.333,285.008,401.667,285.008,407.833L285.008,414" id="my-svg-edge7" class="edge-thickness-normal edge-pattern-solid transition" style="fill:none;;;fill:none" data-edge="true" data-et="edge" data-id="edge7" data-points="W3sieCI6Mjg1LjAwNzgxMjUsInkiOjM0MH0seyJ4IjoyODUuMDA3ODEyNSwieSI6Mzc3fSx7IngiOjI4NS4wMDc4MTI1LCJ5Ijo0MTR9XQ==" data-look="classic" marker-end="url(#my-svg_stateDiagram-barbEnd)"/><path d="M585.727,250L585.727,254.167C585.727,258.333,585.727,266.667,585.727,275C585.727,283.333,585.727,291.667,585.727,295.833L585.727,300" id="my-svg-edge8" class="edge-thickness-normal edge-pattern-solid transition" style="fill:none;;;fill:none" data-edge="true" data-et="edge" data-id="edge8" data-points="W3sieCI6NTg1LjcyNjU2MjUsInkiOjI1MH0seyJ4Ijo1ODUuNzI2NTYyNSwieSI6Mjc1fSx7IngiOjU4NS43MjY1NjI1LCJ5IjozMDB9XQ==" data-look="classic" marker-end="url(#my-svg_stateDiagram-barbEnd)"/><path d="M554.468,340L544.83,346.167C535.192,352.333,515.917,364.667,506.279,377C496.641,389.333,496.641,401.667,496.641,407.833L496.641,414" id="my-svg-edge9" class="edge-thickness-normal edge-pattern-solid transition" style="fill:none;;;fill:none" data-edge="true" data-et="edge" data-id="edge9" data-points="W3sieCI6NTU0LjQ2ODMzODgxNTc4OTUsInkiOjM0MH0seyJ4Ijo0OTYuNjQwNjI1LCJ5IjozNzd9LHsieCI6NDk2LjY0MDYyNSwieSI6NDE0fV0=" data-look="classic" marker-end="url(#my-svg_stateDiagram-barbEnd)"/><path d="M602.547,340L607.733,346.167C612.919,352.333,623.292,364.667,628.478,380.333C633.664,396,633.664,415,633.664,432C633.664,449,633.664,464,633.664,479.667C633.664,495.333,633.664,511.667,633.664,528C633.664,544.333,633.664,560.667,633.664,576.333C633.664,592,633.664,607,633.664,624C633.664,641,633.664,660,633.664,679C633.664,698,633.664,717,633.664,734C633.664,751,633.664,766,633.664,781C633.664,796,633.664,811,633.664,830C633.664,849,633.664,872,641.373,891.667C649.081,911.333,664.498,927.667,672.207,935.833L679.915,944" id="my-svg-edge10" class="edge-thickness-normal edge-pattern-solid transition" style="fill:none;;;fill:none" data-edge="true" data-et="edge" data-id="edge10" data-points="W3sieCI6NjAyLjU0NjczNzkzODU5NjUsInkiOjM0MH0seyJ4Ijo2MzMuNjY0MDYyNSwieSI6Mzc3fSx7IngiOjYzMy42NjQwNjI1LCJ5Ijo0MzR9LHsieCI6NjMzLjY2NDA2MjUsInkiOjQ3OX0seyJ4Ijo2MzMuNjY0MDYyNSwieSI6NTI4fSx7IngiOjYzMy42NjQwNjI1LCJ5Ijo1Nzd9LHsieCI6NjMzLjY2NDA2MjUsInkiOjYyMn0seyJ4Ijo2MzMuNjY0MDYyNSwieSI6Njc5fSx7IngiOjYzMy42NjQwNjI1LCJ5Ijo3MzZ9LHsieCI6NjMzLjY2NDA2MjUsInkiOjc4MX0seyJ4Ijo2MzMuNjY0MDYyNSwieSI6ODI2fSx7IngiOjYzMy42NjQwNjI1LCJ5Ijo4OTV9LHsieCI6Njc5LjkxNTAyNDkwOTQyMDMsInkiOjk0NH1d" data-look="classic" marker-end="url(#my-svg_stateDiagram-barbEnd)"/><path d="M285.008,454L285.008,458.167C285.008,462.333,285.008,470.667,295.445,479.667C305.883,488.667,326.759,498.333,337.196,503.167L347.634,508" id="my-svg-edge11" class="edge-thickness-normal edge-pattern-solid transition" style="fill:none;;;fill:none" data-edge="true" data-et="edge" data-id="edge11" data-points="W3sieCI6Mjg1LjAwNzgxMjUsInkiOjQ1NH0seyJ4IjoyODUuMDA3ODEyNSwieSI6NDc5fSx7IngiOjM0Ny42MzM4NDg4NTIwNDA4NCwieSI6NTA4fV0=" data-look="classic" marker-end="url(#my-svg_stateDiagram-barbEnd)"/><path d="M496.641,454L496.641,458.167C496.641,462.333,496.641,470.667,486.203,479.667C475.765,488.667,454.89,498.333,444.452,503.167L434.015,508" id="my-svg-edge12" class="edge-thickness-normal edge-pattern-solid transition" style="fill:none;;;fill:none" data-edge="true" data-et="edge" data-id="edge12" data-points="W3sieCI6NDk2LjY0MDYyNSwieSI6NDU0fSx7IngiOjQ5Ni42NDA2MjUsInkiOjQ3OX0seyJ4Ijo0MzQuMDE0NTg4NjQ3OTU5MTYsInkiOjUwOH1d" data-look="classic" marker-end="url(#my-svg_stateDiagram-barbEnd)"/><path d="M777.406,548L777.406,552.833C777.406,557.667,777.406,567.333,722.982,578.502C668.559,589.67,559.711,602.341,505.287,608.676L450.863,615.011" id="my-svg-edge13" class="edge-thickness-normal edge-pattern-solid transition" style="fill:none;;;fill:none" data-edge="true" data-et="edge" data-id="edge13" data-points="W3sieCI6Nzc3LjQwNjI1LCJ5Ijo1NDh9LHsieCI6Nzc3LjQwNjI1LCJ5Ijo1Nzd9LHsieCI6NDUwLjg2MzI4MTI1LCJ5Ijo2MTUuMDExMTY1NTYzNTgzMX1d" data-look="classic" marker-end="url(#my-svg_stateDiagram-barbEnd)"/><path d="M390.824,548L390.824,552.833C390.824,557.667,390.824,567.333,390.824,576.333C390.824,585.333,390.824,593.667,390.824,597.833L390.824,602" id="my-svg-edge14" class="edge-thickness-normal edge-pattern-solid transition" style="fill:none;;;fill:none" data-edge="true" data-et="edge" data-id="edge14" data-points="W3sieCI6MzkwLjgyNDIxODc1LCJ5Ijo1NDh9LHsieCI6MzkwLjgyNDIxODc1LCJ5Ijo1Nzd9LHsieCI6MzkwLjgyNDIxODc1LCJ5Ijo2MDJ9XQ==" data-look="classic" marker-end="url(#my-svg_stateDiagram-barbEnd)"/><path d="M353.323,642L341.76,648.167C330.197,654.333,307.071,666.667,295.508,679C283.945,691.333,283.945,703.667,283.945,709.833L283.945,716" id="my-svg-edge15" class="edge-thickness-normal edge-pattern-solid transition" style="fill:none;;;fill:none" data-edge="true" data-et="edge" data-id="edge15" data-points="W3sieCI6MzUzLjMyMjg0ODEzNTk2NDkzLCJ5Ijo2NDJ9LHsieCI6MjgzLjk0NTMxMjUsInkiOjY3OX0seyJ4IjoyODMuOTQ1MzEyNSwieSI6NzE2fV0=" data-look="classic" marker-end="url(#my-svg_stateDiagram-barbEnd)"/><path d="M426.897,642L438.02,648.167C449.143,654.333,471.388,666.667,482.51,682.333C493.633,698,493.633,717,493.633,734C493.633,751,493.633,766,493.633,781C493.633,796,493.633,811,493.633,830C493.633,849,493.633,872,493.633,895C493.633,918,493.633,941,493.633,964C493.633,987,493.633,1010,496.155,1029.717C498.678,1049.434,503.723,1065.868,506.245,1074.085L508.768,1082.302" id="my-svg-edge16" class="edge-thickness-normal edge-pattern-solid transition" style="fill:none;;;fill:none" data-edge="true" data-et="edge" data-id="edge16" data-points="W3sieCI6NDI2Ljg5NzQwOTUzOTQ3MzcsInkiOjY0Mn0seyJ4Ijo0OTMuNjMyODEyNSwieSI6Njc5fSx7IngiOjQ5My42MzI4MTI1LCJ5Ijo3MzZ9LHsieCI6NDkzLjYzMjgxMjUsInkiOjc4MX0seyJ4Ijo0OTMuNjMyODEyNSwieSI6ODI2fSx7IngiOjQ5My42MzI4MTI1LCJ5Ijo4OTV9LHsieCI6NDkzLjYzMjgxMjUsInkiOjk2NH0seyJ4Ijo0OTMuNjMyODEyNSwieSI6MTAzM30seyJ4Ijo1MDguNzY3OTY0NTQxNTg0NCwieSI6MTA4Mi4zMDE4NzIyMjYzNDd9XQ==" data-look="classic" marker-end="url(#my-svg_stateDiagram-barbEnd)"/><path d="M283.945,756L283.945,760.167C283.945,764.333,283.945,772.667,283.945,781C283.945,789.333,283.945,797.667,283.945,801.833L283.945,806" id="my-svg-edge17" class="edge-thickness-normal edge-pattern-solid transition" style="fill:none;;;fill:none" data-edge="true" data-et="edge" data-id="edge17" data-points="W3sieCI6MjgzLjk0NTMxMjUsInkiOjc1Nn0seyJ4IjoyODMuOTQ1MzEyNSwieSI6NzgxfSx7IngiOjI4My45NDUzMTI1LCJ5Ijo4MDZ9XQ==" data-look="classic" marker-end="url(#my-svg_stateDiagram-barbEnd)"/><path d="M250.064,846L236.229,854.167C222.394,862.333,194.724,878.667,180.89,898.333C167.055,918,167.055,941,167.055,964C167.055,987,167.055,1010,223.197,1030.646C279.339,1051.291,391.624,1069.582,447.766,1078.728L503.909,1087.873" id="my-svg-edge18" class="edge-thickness-normal edge-pattern-solid transition" style="fill:none;;;fill:none" data-edge="true" data-et="edge" data-id="edge18" data-points="W3sieCI6MjUwLjA2Mzk3MTkyMDI4OTg0LCJ5Ijo4NDZ9LHsieCI6MTY3LjA1NDY4NzUsInkiOjg5NX0seyJ4IjoxNjcuMDU0Njg3NSwieSI6OTY0fSx7IngiOjE2Ny4wNTQ2ODc1LCJ5IjoxMDMzfSx7IngiOjUwMy45MDg3MjczMTcwMTIwNSwieSI6MTA4Ny44NzM0Njc1ODQ5ODZ9XQ==" data-look="classic" marker-end="url(#my-svg_stateDiagram-barbEnd)"/><path d="M306.794,846L316.124,854.167C325.454,862.333,344.114,878.667,402.024,896.809C459.934,914.951,557.094,934.903,605.674,944.878L654.254,954.854" id="my-svg-edge19" class="edge-thickness-normal edge-pattern-solid transition" style="fill:none;;;fill:none" data-edge="true" data-et="edge" data-id="edge19" data-points="W3sieCI6MzA2Ljc5NDA0NDM4NDA1OCwieSI6ODQ2fSx7IngiOjM2Mi43NzM0Mzc1LCJ5Ijo4OTV9LHsieCI6NjU0LjI1MzkwNjI1LCJ5Ijo5NTQuODU0MTE3MDE3OTM3NX1d" data-look="classic" marker-end="url(#my-svg_stateDiagram-barbEnd)"/><path d="M698.793,984L698.793,992.167C698.793,1000.333,698.793,1016.667,668.584,1033.833C638.375,1051,577.957,1069,547.748,1078L517.539,1086.999" id="my-svg-edge20" class="edge-thickness-normal edge-pattern-solid transition" style="fill:none;;;fill:none" data-edge="true" data-et="edge" data-id="edge20" data-points="W3sieCI6Njk4Ljc5Mjk2ODc1LCJ5Ijo5ODR9LHsieCI6Njk4Ljc5Mjk2ODc1LCJ5IjoxMDMzfSx7IngiOjUxNy41MzkxOTc1ODUzNTcyLCJ5IjoxMDg2Ljk5OTQ2MTAwMjAwMTd9XQ==" data-look="classic" marker-end="url(#my-svg_stateDiagram-barbEnd)"/></g><g class="edgeLabels"><g class="edgeLabel"><g class="label" data-id="edge0" transform="translate(0, 0)"><foreignObject width="0" height="0"><div xmlns="http://www.w3.org/1999/xhtml" class="labelBkg" style="display: table-cell; white-space: nowrap; line-height: 1.5; max-width: 200px; text-align: center;"><span class="edgeLabel"></span></div></foreignObject></g></g><g class="edgeLabel" transform="translate(99.1875, 320)"><g class="label" data-id="edge1" transform="translate(-91.1875, -12)"><foreignObject width="182.375" height="24"><div xmlns="http://www.w3.org/1999/xhtml" class="labelBkg" style="display: table-cell; white-space: nowrap; line-height: 1.5; max-width: 200px; text-align: center;"><span class="edgeLabel"><p>no schema and no history</p></span></div></foreignObject></g></g><g class="edgeLabel" transform="translate(285.0078125, 230)"><g class="label" data-id="edge2" transform="translate(-91.984375, -12)"><foreignObject width="183.96875" height="24"><div xmlns="http://www.w3.org/1999/xhtml" class="labelBkg" style="display: table-cell; white-space: nowrap; line-height: 1.5; max-width: 200px; text-align: center;"><span class="edgeLabel"><p>recognized shared history</p></span></div></foreignObject></g></g><g class="edgeLabel" transform="translate(585.7265625, 161)"><g class="label" data-id="edge3" transform="translate(-100, -24)"><foreignObject width="200" height="48"><div xmlns="http://www.w3.org/1999/xhtml" class="labelBkg" style="display: table; white-space: break-spaces; line-height: 1.5; max-width: 200px; text-align: center; width: 200px;"><span class="edgeLabel"><p>recognized legacy or Auth alias</p></span></div></foreignObject></g></g><g class="edgeLabel" transform="translate(777.40625, 320)"><g class="label" data-id="edge4" transform="translate(-88.109375, -12)"><foreignObject width="176.21875" height="24"><div xmlns="http://www.w3.org/1999/xhtml" class="labelBkg" style="display: table-cell; white-space: nowrap; line-height: 1.5; max-width: 200px; text-align: center;"><span class="edgeLabel"><p>module histories current</p></span></div></foreignObject></g></g><g class="edgeLabel" transform="translate(973.2109375, 528)"><g class="label" data-id="edge5" transform="translate(-100, -24)"><foreignObject width="200" height="48"><div xmlns="http://www.w3.org/1999/xhtml" class="labelBkg" style="display: table; white-space: break-spaces; line-height: 1.5; max-width: 200px; text-align: center; width: 200px;"><span class="edgeLabel"><p>unknown, mixed, partial or fingerprint mismatch</p></span></div></foreignObject></g></g><g class="edgeLabel"><g class="label" data-id="edge6" transform="translate(0, 0)"><foreignObject width="0" height="0"><div xmlns="http://www.w3.org/1999/xhtml" class="labelBkg" style="display: table-cell; white-space: nowrap; line-height: 1.5; max-width: 200px; text-align: center;"><span class="edgeLabel"></span></div></foreignObject></g></g><g class="edgeLabel" transform="translate(285.0078125, 377)"><g class="label" data-id="edge7" transform="translate(-86.625, -12)"><foreignObject width="173.25" height="24"><div xmlns="http://www.w3.org/1999/xhtml" class="labelBkg" style="display: table-cell; white-space: nowrap; line-height: 1.5; max-width: 200px; text-align: center;"><span class="edgeLabel"><p>preserve ProductVersion</p></span></div></foreignObject></g></g><g class="edgeLabel"><g class="label" data-id="edge8" transform="translate(0, 0)"><foreignObject width="0" height="0"><div xmlns="http://www.w3.org/1999/xhtml" class="labelBkg" style="display: table-cell; white-space: nowrap; line-height: 1.5; max-width: 200px; text-align: center;"><span class="edgeLabel"></span></div></foreignObject></g></g><g class="edgeLabel" transform="translate(496.640625, 377)"><g class="label" data-id="edge9" transform="translate(-58.3671875, -12)"><foreignObject width="116.734375" height="24"><div xmlns="http://www.w3.org/1999/xhtml" class="labelBkg" style="display: table-cell; white-space: nowrap; line-height: 1.5; max-width: 200px; text-align: center;"><span class="edgeLabel"><p>complete match</p></span></div></foreignObject></g></g><g class="edgeLabel" transform="translate(633.6640625, 622)"><g class="label" data-id="edge10" transform="translate(-65.0234375, -12)"><foreignObject width="130.046875" height="24"><div xmlns="http://www.w3.org/1999/xhtml" class="labelBkg" style="display: table-cell; white-space: nowrap; line-height: 1.5; max-width: 200px; text-align: center;"><span class="edgeLabel"><p>incomplete match</p></span></div></foreignObject></g></g><g class="edgeLabel"><g class="label" data-id="edge11" transform="translate(0, 0)"><foreignObject width="0" height="0"><div xmlns="http://www.w3.org/1999/xhtml" class="labelBkg" style="display: table-cell; white-space: nowrap; line-height: 1.5; max-width: 200px; text-align: center;"><span class="edgeLabel"></span></div></foreignObject></g></g><g class="edgeLabel"><g class="label" data-id="edge12" transform="translate(0, 0)"><foreignObject width="0" height="0"><div xmlns="http://www.w3.org/1999/xhtml" class="labelBkg" style="display: table-cell; white-space: nowrap; line-height: 1.5; max-width: 200px; text-align: center;"><span class="edgeLabel"></span></div></foreignObject></g></g><g class="edgeLabel"><g class="label" data-id="edge13" transform="translate(0, 0)"><foreignObject width="0" height="0"><div xmlns="http://www.w3.org/1999/xhtml" class="labelBkg" style="display: table-cell; white-space: nowrap; line-height: 1.5; max-width: 200px; text-align: center;"><span class="edgeLabel"></span></div></foreignObject></g></g><g class="edgeLabel"><g class="label" data-id="edge14" transform="translate(0, 0)"><foreignObject width="0" height="0"><div xmlns="http://www.w3.org/1999/xhtml" class="labelBkg" style="display: table-cell; white-space: nowrap; line-height: 1.5; max-width: 200px; text-align: center;"><span class="edgeLabel"></span></div></foreignObject></g></g><g class="edgeLabel" transform="translate(283.9453125, 679)"><g class="label" data-id="edge15" transform="translate(-77.2578125, -12)"><foreignObject width="154.515625" height="24"><div xmlns="http://www.w3.org/1999/xhtml" class="labelBkg" style="display: table-cell; white-space: nowrap; line-height: 1.5; max-width: 200px; text-align: center;"><span class="edgeLabel"><p>approved apply mode</p></span></div></foreignObject></g></g><g class="edgeLabel" transform="translate(493.6328125, 826)"><g class="label" data-id="edge16" transform="translate(-69.609375, -12)"><foreignObject width="139.21875" height="24"><div xmlns="http://www.w3.org/1999/xhtml" class="labelBkg" style="display: table-cell; white-space: nowrap; line-height: 1.5; max-width: 200px; text-align: center;"><span class="edgeLabel"><p>preflight or dry-run</p></span></div></foreignObject></g></g><g class="edgeLabel"><g class="label" data-id="edge17" transform="translate(0, 0)"><foreignObject width="0" height="0"><div xmlns="http://www.w3.org/1999/xhtml" class="labelBkg" style="display: table-cell; white-space: nowrap; line-height: 1.5; max-width: 200px; text-align: center;"><span class="edgeLabel"></span></div></foreignObject></g></g><g class="edgeLabel" transform="translate(167.0546875, 964)"><g class="label" data-id="edge18" transform="translate(-84.109375, -12)"><foreignObject width="168.21875" height="24"><div xmlns="http://www.w3.org/1999/xhtml" class="labelBkg" style="display: table-cell; white-space: nowrap; line-height: 1.5; max-width: 200px; text-align: center;"><span class="edgeLabel"><p>all required IDs present</p></span></div></foreignObject></g></g><g class="edgeLabel" transform="translate(472.07621, 917.4448)"><g class="label" data-id="edge19" transform="translate(-100, -24)"><foreignObject width="200" height="48"><div xmlns="http://www.w3.org/1999/xhtml" class="labelBkg" style="display: table; white-space: break-spaces; line-height: 1.5; max-width: 200px; text-align: center; width: 200px;"><span class="edgeLabel"><p>ownership or pending mismatch</p></span></div></foreignObject></g></g><g class="edgeLabel" transform="translate(698.79296875, 1033)"><g class="label" data-id="edge20" transform="translate(-100, -24)"><foreignObject width="200" height="48"><div xmlns="http://www.w3.org/1999/xhtml" class="labelBkg" style="display: table; white-space: break-spaces; line-height: 1.5; max-width: 200px; text-align: center; width: 200px;"><span class="edgeLabel"><p>non-zero exit, no automatic repair</p></span></div></foreignObject></g></g></g><g class="nodes"><g class="node default" id="my-svg-state-root_start-0" data-look="classic" transform="translate(576.671875, 15)"><circle class="state-start" r="7" width="14" height="14"/></g><g class="node  statediagram-state" id="my-svg-state-Inspect-5" data-look="classic" transform="translate(576.671875, 92)"><rect class="basic label-container" style="" rx="5" ry="5" x="-33.7890625" y="-20" width="67.578125" height="40"/><g class="label" style="" transform="translate(-25.7890625, -12)"><rect/><foreignObject width="51.578125" height="24"><div xmlns="http://www.w3.org/1999/xhtml" style="display: table-cell; white-space: nowrap; line-height: 1.5; max-width: 200px; text-align: center;"><span class="nodeLabel markdown-node-label"><p>Inspect</p></span></div></foreignObject></g></g><g class="node  statediagram-state" id="my-svg-state-Fresh-6" data-look="classic" transform="translate(99.1875, 528)"><rect class="basic label-container" style="" rx="5" ry="5" x="-27.28125" y="-20" width="54.5625" height="40"/><g class="label" style="" transform="translate(-19.28125, -12)"><rect/><foreignObject width="38.5625" height="24"><div xmlns="http://www.w3.org/1999/xhtml" style="display: table-cell; white-space: nowrap; line-height: 1.5; max-width: 200px; text-align: center;"><span class="nodeLabel markdown-node-label"><p>Fresh</p></span></div></foreignObject></g></g><g class="node  statediagram-state" id="my-svg-state-CurrentShared-7" data-look="classic" transform="translate(285.0078125, 320)"><rect class="basic label-container" style="" rx="5" ry="5" x="-59.6328125" y="-20" width="119.265625" height="40"/><g class="label" style="" transform="translate(-51.6328125, -12)"><rect/><foreignObject width="103.265625" height="24"><div xmlns="http://www.w3.org/1999/xhtml" style="display: table-cell; white-space: nowrap; line-height: 1.5; max-width: 200px; text-align: center;"><span class="nodeLabel markdown-node-label"><p>CurrentShared</p></span></div></foreignObject></g></g><g class="node  statediagram-state" id="my-svg-state-KnownLegacy-8" data-look="classic" transform="translate(585.7265625, 230)"><rect class="basic label-container" style="" rx="5" ry="5" x="-55.8828125" y="-20" width="111.765625" height="40"/><g class="label" style="" transform="translate(-47.8828125, -12)"><rect/><foreignObject width="95.765625" height="24"><div xmlns="http://www.w3.org/1999/xhtml" style="display: table-cell; white-space: nowrap; line-height: 1.5; max-width: 200px; text-align: center;"><span class="nodeLabel markdown-node-label"><p>KnownLegacy</p></span></div></foreignObject></g></g><g class="node  statediagram-state" id="my-svg-state-CurrentModule-13" data-look="classic" transform="translate(777.40625, 528)"><rect class="basic label-container" style="" rx="5" ry="5" x="-60.8046875" y="-20" width="121.609375" height="40"/><g class="label" style="" transform="translate(-52.8046875, -12)"><rect/><foreignObject width="105.609375" height="24"><div xmlns="http://www.w3.org/1999/xhtml" style="display: table-cell; white-space: nowrap; line-height: 1.5; max-width: 200px; text-align: center;"><span class="nodeLabel markdown-node-label"><p>CurrentModule</p></span></div></foreignObject></g></g><g class="node  statediagram-state" id="my-svg-state-FailClosed-20" data-look="classic" transform="translate(698.79296875, 964)"><rect class="basic label-container" style="" rx="5" ry="5" x="-44.5390625" y="-20" width="89.078125" height="40"/><g class="label" style="" transform="translate(-36.5390625, -12)"><rect/><foreignObject width="73.078125" height="24"><div xmlns="http://www.w3.org/1999/xhtml" style="display: table-cell; white-space: nowrap; line-height: 1.5; max-width: 200px; text-align: center;"><span class="nodeLabel markdown-node-label"><p>FailClosed</p></span></div></foreignObject></g></g><g class="node  statediagram-state" id="my-svg-state-PlanMigrations-16" data-look="classic" transform="translate(390.82421875, 622)"><rect class="basic label-container" style="" rx="5" ry="5" x="-60.0390625" y="-20" width="120.078125" height="40"/><g class="label" style="" transform="translate(-52.0390625, -12)"><rect/><foreignObject width="104.078125" height="24"><div xmlns="http://www.w3.org/1999/xhtml" style="display: table-cell; white-space: nowrap; line-height: 1.5; max-width: 200px; text-align: center;"><span class="nodeLabel markdown-node-label"><p>PlanMigrations</p></span></div></foreignObject></g></g><g class="node  statediagram-state" id="my-svg-state-CopyExactOwnership-11" data-look="classic" transform="translate(285.0078125, 434)"><rect class="basic label-container" style="" rx="5" ry="5" x="-82.6484375" y="-20" width="165.296875" height="40"/><g class="label" style="" transform="translate(-74.6484375, -12)"><rect/><foreignObject width="149.296875" height="24"><div xmlns="http://www.w3.org/1999/xhtml" style="display: table-cell; white-space: nowrap; line-height: 1.5; max-width: 200px; text-align: center;"><span class="nodeLabel markdown-node-label"><p>CopyExactOwnership</p></span></div></foreignObject></g></g><g class="node  statediagram-state" id="my-svg-state-VerifyFingerprint-10" data-look="classic" transform="translate(585.7265625, 320)"><rect class="basic label-container" style="" rx="5" ry="5" x="-68.5703125" y="-20" width="137.140625" height="40"/><g class="label" style="" transform="translate(-60.5703125, -12)"><rect/><foreignObject width="121.140625" height="24"><div xmlns="http://www.w3.org/1999/xhtml" style="display: table-cell; white-space: nowrap; line-height: 1.5; max-width: 200px; text-align: center;"><span class="nodeLabel markdown-node-label"><p>VerifyFingerprint</p></span></div></foreignObject></g></g><g class="node  statediagram-state" id="my-svg-state-NormalizeCanonical-12" data-look="classic" transform="translate(496.640625, 434)"><rect class="basic label-container" style="" rx="5" ry="5" x="-78.984375" y="-20" width="157.96875" height="40"/><g class="label" style="" transform="translate(-70.984375, -12)"><rect/><foreignObject width="141.96875" height="24"><div xmlns="http://www.w3.org/1999/xhtml" style="display: table-cell; white-space: nowrap; line-height: 1.5; max-width: 200px; text-align: center;"><span class="nodeLabel markdown-node-label"><p>NormalizeCanonical</p></span></div></foreignObject></g></g><g class="node  statediagram-state" id="my-svg-state-ModuleHistories-14" data-look="classic" transform="translate(390.82421875, 528)"><rect class="basic label-container" style="" rx="5" ry="5" x="-64.734375" y="-20" width="129.46875" height="40"/><g class="label" style="" transform="translate(-56.734375, -12)"><rect/><foreignObject width="113.46875" height="24"><div xmlns="http://www.w3.org/1999/xhtml" style="display: table-cell; white-space: nowrap; line-height: 1.5; max-width: 200px; text-align: center;"><span class="nodeLabel markdown-node-label"><p>ModuleHistories</p></span></div></foreignObject></g></g><g class="node  statediagram-state" id="my-svg-state-ApplyPending-17" data-look="classic" transform="translate(283.9453125, 736)"><rect class="basic label-container" style="" rx="5" ry="5" x="-55.8828125" y="-20" width="111.765625" height="40"/><g class="label" style="" transform="translate(-47.8828125, -12)"><rect/><foreignObject width="95.765625" height="24"><div xmlns="http://www.w3.org/1999/xhtml" style="display: table-cell; white-space: nowrap; line-height: 1.5; max-width: 200px; text-align: center;"><span class="nodeLabel markdown-node-label"><p>ApplyPending</p></span></div></foreignObject></g></g><g class="node default" id="my-svg-state-root_end-20" data-look="classic" transform="translate(510.82421875, 1089)"><g class="outer-path"><path d="M7 0 C7 0.40517908122283747, 6.964012880168563 0.816513743121899, 6.893654271085456 1.2155372436685123 C6.823295662002349 1.6145607442151257, 6.716427752933756 2.013397210557766, 6.5778483455013586 2.394141003279681 C6.439268938068961 2.7748847960015954, 6.26476736710249 3.149104622578984, 6.062177826491071 3.4999999999999996 C5.859588285879653 3.8508953774210153, 5.622755194947063 4.189128084166967, 5.362311101832846 4.499513267805774 C5.10186700871863 4.809898451444582, 4.809898451444583 5.10186700871863, 4.499513267805775 5.362311101832846 C4.189128084166968 5.622755194947063, 3.8508953774210166 5.859588285879652, 3.500000000000001 6.06217782649107 C3.149104622578985 6.264767367102489, 2.7748847960015963 6.439268938068961, 2.3941410032796817 6.5778483455013586 C2.013397210557767 6.716427752933756, 1.6145607442151264 6.823295662002349, 1.2155372436685128 6.893654271085456 C0.8165137431218992 6.964012880168563, 0.4051790812228379 7, 4.286263797015736e-16 7 C-0.405179081222837 7, -0.8165137431218985 6.964012880168563, -1.2155372436685121 6.893654271085456 C-1.6145607442151257 6.823295662002349, -2.0133972105577667 6.716427752933756, -2.394141003279681 6.5778483455013586 C-2.774884796001595 6.439268938068961, -3.149104622578983 6.26476736710249, -3.4999999999999982 6.062177826491071 C-3.8508953774210135 5.859588285879653, -4.189128084166966 5.6227551949470636, -4.499513267805773 5.362311101832848 C-4.809898451444581 5.101867008718632, -5.101867008718628 4.809898451444586, -5.3623111018328435 4.499513267805779 C-5.622755194947059 4.189128084166971, -5.859588285879649 3.8508953774210206, -6.062177826491068 3.5000000000000053 C-6.264767367102486 3.14910462257899, -6.439268938068958 2.774884796001602, -6.577848345501356 2.394141003279688 C-6.716427752933754 2.0133972105577738, -6.823295662002347 1.614560744215134, -6.893654271085454 1.215537243668521 C-6.9640128801685615 0.816513743121908, -6.999999999999999 0.4051790812228472, -7 1.0183126166254463e-14 C-7.000000000000001 -0.40517908122282686, -6.964012880168565 -0.8165137431218878, -6.893654271085459 -1.215537243668501 C-6.823295662002352 -1.6145607442151142, -6.716427752933759 -2.0133972105577542, -6.577848345501363 -2.394141003279669 C-6.439268938068967 -2.7748847960015834, -6.264767367102496 -3.149104622578972, -6.062177826491078 -3.4999999999999876 C-5.859588285879661 -3.8508953774210033, -5.6227551949470715 -4.1891280841669545, -5.362311101832856 -4.499513267805763 C-5.10186700871864 -4.809898451444571, -4.809898451444594 -5.10186700871862, -4.499513267805787 -5.362311101832836 C-4.189128084166979 -5.622755194947053, -3.850895377421028 -5.859588285879643, -3.5000000000000133 -6.062177826491062 C-3.1491046225789985 -6.264767367102482, -2.774884796001611 -6.439268938068954, -2.3941410032796973 -6.577848345501353 C-2.0133972105577835 -6.716427752933752, -1.6145607442151435 -6.823295662002345, -1.2155372436685306 -6.893654271085453 C-0.8165137431219176 -6.9640128801685615, -0.40517908122285695 -6.999999999999999, -1.9937625952807352e-14 -7 C0.4051790812228171 -7.000000000000001, 0.8165137431218781 -6.964012880168565, 1.2155372436684913 -6.89365427108546 C1.6145607442151044 -6.823295662002354, 2.013397210557745 -6.716427752933763, 2.3941410032796595 -6.5778483455013665 C2.774884796001574 -6.43926893806897, 3.149104622578963 -6.2647673671025, 3.499999999999979 -6.062177826491083 C3.8508953774209953 -5.859588285879665, 4.189128084166947 -5.622755194947077, 4.499513267805756 -5.362311101832862 C4.809898451444564 -5.1018670087186475, 5.101867008718613 -4.809898451444602, 5.362311101832829 -4.499513267805796 C5.622755194947046 -4.189128084166989, 5.859588285879637 -3.8508953774210393, 6.062177826491056 -3.500000000000025 C6.2647673671024755 -3.1491046225790105, 6.439268938068949 -2.774884796001623, 6.577848345501348 -2.3941410032797092 C6.716427752933747 -2.0133972105577955, 6.823295662002342 -1.6145607442151562, 6.893654271085451 -1.2155372436685434 C6.96401288016856 -0.8165137431219307, 6.982275711847575 -0.2025895406114567, 7 -3.2800750208310675e-14 C7.017724288152425 0.2025895406113911, 7.017724288152424 -0.2025895406114242, 7 0" stroke="none" stroke-width="0" fill="#ECECFF" style=""/><path d="M7 0 C7 0.40517908122283747, 6.964012880168563 0.816513743121899, 6.893654271085456 1.2155372436685123 C6.823295662002349 1.6145607442151257, 6.716427752933756 2.013397210557766, 6.5778483455013586 2.394141003279681 C6.439268938068961 2.7748847960015954, 6.26476736710249 3.149104622578984, 6.062177826491071 3.4999999999999996 C5.859588285879653 3.8508953774210153, 5.622755194947063 4.189128084166967, 5.362311101832846 4.499513267805774 C5.10186700871863 4.809898451444582, 4.809898451444583 5.10186700871863, 4.499513267805775 5.362311101832846 C4.189128084166968 5.622755194947063, 3.8508953774210166 5.859588285879652, 3.500000000000001 6.06217782649107 C3.149104622578985 6.264767367102489, 2.7748847960015963 6.439268938068961, 2.3941410032796817 6.5778483455013586 C2.013397210557767 6.716427752933756, 1.6145607442151264 6.823295662002349, 1.2155372436685128 6.893654271085456 C0.8165137431218992 6.964012880168563, 0.4051790812228379 7, 4.286263797015736e-16 7 C-0.405179081222837 7, -0.8165137431218985 6.964012880168563, -1.2155372436685121 6.893654271085456 C-1.6145607442151257 6.823295662002349, -2.0133972105577667 6.716427752933756, -2.394141003279681 6.5778483455013586 C-2.774884796001595 6.439268938068961, -3.149104622578983 6.26476736710249, -3.4999999999999982 6.062177826491071 C-3.8508953774210135 5.859588285879653, -4.189128084166966 5.6227551949470636, -4.499513267805773 5.362311101832848 C-4.809898451444581 5.101867008718632, -5.101867008718628 4.809898451444586, -5.3623111018328435 4.499513267805779 C-5.622755194947059 4.189128084166971, -5.859588285879649 3.8508953774210206, -6.062177826491068 3.5000000000000053 C-6.264767367102486 3.14910462257899, -6.439268938068958 2.774884796001602, -6.577848345501356 2.394141003279688 C-6.716427752933754 2.0133972105577738, -6.823295662002347 1.614560744215134, -6.893654271085454 1.215537243668521 C-6.9640128801685615 0.816513743121908, -6.999999999999999 0.4051790812228472, -7 1.0183126166254463e-14 C-7.000000000000001 -0.40517908122282686, -6.964012880168565 -0.8165137431218878, -6.893654271085459 -1.215537243668501 C-6.823295662002352 -1.6145607442151142, -6.716427752933759 -2.0133972105577542, -6.577848345501363 -2.394141003279669 C-6.439268938068967 -2.7748847960015834, -6.264767367102496 -3.149104622578972, -6.062177826491078 -3.4999999999999876 C-5.859588285879661 -3.8508953774210033, -5.6227551949470715 -4.1891280841669545, -5.362311101832856 -4.499513267805763 C-5.10186700871864 -4.809898451444571, -4.809898451444594 -5.10186700871862, -4.499513267805787 -5.362311101832836 C-4.189128084166979 -5.622755194947053, -3.850895377421028 -5.859588285879643, -3.5000000000000133 -6.062177826491062 C-3.1491046225789985 -6.264767367102482, -2.774884796001611 -6.439268938068954, -2.3941410032796973 -6.577848345501353 C-2.0133972105577835 -6.716427752933752, -1.6145607442151435 -6.823295662002345, -1.2155372436685306 -6.893654271085453 C-0.8165137431219176 -6.9640128801685615, -0.40517908122285695 -6.999999999999999, -1.9937625952807352e-14 -7 C0.4051790812228171 -7.000000000000001, 0.8165137431218781 -6.964012880168565, 1.2155372436684913 -6.89365427108546 C1.6145607442151044 -6.823295662002354, 2.013397210557745 -6.716427752933763, 2.3941410032796595 -6.5778483455013665 C2.774884796001574 -6.43926893806897, 3.149104622578963 -6.2647673671025, 3.499999999999979 -6.062177826491083 C3.8508953774209953 -5.859588285879665, 4.189128084166947 -5.622755194947077, 4.499513267805756 -5.362311101832862 C4.809898451444564 -5.1018670087186475, 5.101867008718613 -4.809898451444602, 5.362311101832829 -4.499513267805796 C5.622755194947046 -4.189128084166989, 5.859588285879637 -3.8508953774210393, 6.062177826491056 -3.500000000000025 C6.2647673671024755 -3.1491046225790105, 6.439268938068949 -2.774884796001623, 6.577848345501348 -2.3941410032797092 C6.716427752933747 -2.0133972105577955, 6.823295662002342 -1.6145607442151562, 6.893654271085451 -1.2155372436685434 C6.96401288016856 -0.8165137431219307, 6.982275711847575 -0.2025895406114567, 7 -3.2800750208310675e-14 C7.017724288152425 0.2025895406113911, 7.017724288152424 -0.2025895406114242, 7 0" stroke="#333333" stroke-width="2" fill="none" stroke-dasharray="0 0" style=""/><g><path d="M2.5 0 C2.5 0.14470681472244193, 2.487147457203058 0.29161205111496386, 2.46201938253052 0.4341204441673258 C2.436891307857982 0.5766288372196877, 2.3987241974763416 0.7190704323420595, 2.3492315519647713 0.8550503583141718 C2.299738906453201 0.991030284286284, 2.2374169168223177 1.124680222349637, 2.165063509461097 1.2499999999999998 C2.092710102099876 1.3753197776503625, 2.0081268553382365 1.496117172916774, 1.915111107797445 1.6069690242163481 C1.8220953602566536 1.7178208755159223, 1.7178208755159226 1.8220953602566536, 1.6069690242163484 1.915111107797445 C1.4961171729167742 2.0081268553382365, 1.375319777650363 2.0927101020998755, 1.2500000000000002 2.1650635094610964 C1.1246802223496375 2.2374169168223172, 0.9910302842862845 2.2997389064532, 0.8550503583141721 2.349231551964771 C0.7190704323420597 2.3987241974763416, 0.576628837219688 2.436891307857982, 0.43412044416732604 2.46201938253052 C0.291612051114964 2.487147457203058, 0.14470681472244212 2.5, 1.5308084989341916e-16 2.5 C-0.1447068147224418 2.5, -0.2916120511149638 2.487147457203058, -0.43412044416732576 2.46201938253052 C-0.5766288372196877 2.436891307857982, -0.7190704323420595 2.3987241974763416, -0.8550503583141718 2.3492315519647713 C-0.991030284286284 2.299738906453201, -1.124680222349637 2.2374169168223177, -1.2499999999999996 2.165063509461097 C-1.375319777650362 2.092710102099876, -1.4961171729167733 2.008126855338237, -1.6069690242163475 1.9151111077974459 C-1.7178208755159217 1.8220953602566548, -1.822095360256653 1.7178208755159234, -1.9151111077974443 1.6069690242163495 C-2.0081268553382357 1.4961171729167755, -2.0927101020998746 1.3753197776503645, -2.1650635094610955 1.250000000000002 C-2.2374169168223164 1.1246802223496395, -2.2997389064531992 0.9910302842862865, -2.34923155196477 0.8550503583141743 C-2.3987241974763407 0.7190704323420621, -2.436891307857981 0.5766288372196907, -2.4620193825305194 0.434120444167329 C-2.487147457203058 0.29161205111496724, -2.5 0.14470681472244545, -2.5 3.636830773662308e-15 C-2.5 -0.14470681472243818, -2.4871474572030587 -0.2916120511149599, -2.4620193825305208 -0.4341204441673218 C-2.436891307857983 -0.5766288372196837, -2.398724197476343 -0.7190704323420553, -2.3492315519647726 -0.8550503583141675 C-2.2997389064532023 -0.9910302842862798, -2.23741691682232 -1.1246802223496328, -2.165063509461099 -1.2499999999999956 C-2.092710102099878 -1.3753197776503583, -2.00812685533824 -1.4961171729167695, -1.9151111077974488 -1.606969024216344 C-1.8220953602566576 -1.7178208755159183, -1.7178208755159263 -1.82209536025665, -1.6069690242163523 -1.9151111077974416 C-1.4961171729167784 -2.0081268553382334, -1.3753197776503672 -2.0927101020998724, -1.2500000000000047 -2.1650635094610937 C-1.1246802223496422 -2.237416916822315, -0.9910302842862897 -2.299738906453198, -0.8550503583141776 -2.3492315519647686 C-0.7190704323420656 -2.3987241974763394, -0.5766288372196942 -2.4368913078579806, -0.43412044416733236 -2.462019382530519 C-0.29161205111497057 -2.4871474572030574, -0.1447068147224489 -2.4999999999999996, -7.120580697431198e-15 -2.5 C0.14470681472243463 -2.5000000000000004, 0.29161205111495647 -2.487147457203059, 0.4341204441673183 -2.4620193825305217 C0.5766288372196802 -2.436891307857984, 0.7190704323420518 -2.3987241974763442, 0.8550503583141642 -2.349231551964774 C0.9910302842862766 -2.2997389064532037, 1.1246802223496295 -2.2374169168223212, 1.2499999999999925 -2.165063509461101 C1.3753197776503554 -2.0927101020998804, 1.4961171729167668 -2.008126855338242, 1.6069690242163412 -1.915111107797451 C1.7178208755159157 -1.82209536025666, 1.8220953602566472 -1.7178208755159294, 1.915111107797439 -1.6069690242163557 C2.0081268553382308 -1.496117172916782, 2.09271010209987 -1.3753197776503712, 2.1650635094610915 -1.2500000000000089 C2.237416916822313 -1.1246802223496466, 2.299738906453196 -0.9910302842862939, 2.3492315519647673 -0.855050358314182 C2.3987241974763385 -0.71907043234207, 2.4368913078579792 -0.5766288372196986, 2.462019382530518 -0.4341204441673369 C2.487147457203057 -0.29161205111497523, 2.4936698970884197 -0.07235340736123454, 2.5 -1.1714553645825241e-14 C2.5063301029115803 0.07235340736121111, 2.50633010291158 -0.07235340736122292, 2.5 0" stroke="none" stroke-width="0" fill="#9370DB" style=""/><path d="M2.5 0 C2.5 0.14470681472244193, 2.487147457203058 0.29161205111496386, 2.46201938253052 0.4341204441673258 C2.436891307857982 0.5766288372196877, 2.3987241974763416 0.7190704323420595, 2.3492315519647713 0.8550503583141718 C2.299738906453201 0.991030284286284, 2.2374169168223177 1.124680222349637, 2.165063509461097 1.2499999999999998 C2.092710102099876 1.3753197776503625, 2.0081268553382365 1.496117172916774, 1.915111107797445 1.6069690242163481 C1.8220953602566536 1.7178208755159223, 1.7178208755159226 1.8220953602566536, 1.6069690242163484 1.915111107797445 C1.4961171729167742 2.0081268553382365, 1.375319777650363 2.0927101020998755, 1.2500000000000002 2.1650635094610964 C1.1246802223496375 2.2374169168223172, 0.9910302842862845 2.2997389064532, 0.8550503583141721 2.349231551964771 C0.7190704323420597 2.3987241974763416, 0.576628837219688 2.436891307857982, 0.43412044416732604 2.46201938253052 C0.291612051114964 2.487147457203058, 0.14470681472244212 2.5, 1.5308084989341916e-16 2.5 C-0.1447068147224418 2.5, -0.2916120511149638 2.487147457203058, -0.43412044416732576 2.46201938253052 C-0.5766288372196877 2.436891307857982, -0.7190704323420595 2.3987241974763416, -0.8550503583141718 2.3492315519647713 C-0.991030284286284 2.299738906453201, -1.124680222349637 2.2374169168223177, -1.2499999999999996 2.165063509461097 C-1.375319777650362 2.092710102099876, -1.4961171729167733 2.008126855338237, -1.6069690242163475 1.9151111077974459 C-1.7178208755159217 1.8220953602566548, -1.822095360256653 1.7178208755159234, -1.9151111077974443 1.6069690242163495 C-2.0081268553382357 1.4961171729167755, -2.0927101020998746 1.3753197776503645, -2.1650635094610955 1.250000000000002 C-2.2374169168223164 1.1246802223496395, -2.2997389064531992 0.9910302842862865, -2.34923155196477 0.8550503583141743 C-2.3987241974763407 0.7190704323420621, -2.436891307857981 0.5766288372196907, -2.4620193825305194 0.434120444167329 C-2.487147457203058 0.29161205111496724, -2.5 0.14470681472244545, -2.5 3.636830773662308e-15 C-2.5 -0.14470681472243818, -2.4871474572030587 -0.2916120511149599, -2.4620193825305208 -0.4341204441673218 C-2.436891307857983 -0.5766288372196837, -2.398724197476343 -0.7190704323420553, -2.3492315519647726 -0.8550503583141675 C-2.2997389064532023 -0.9910302842862798, -2.23741691682232 -1.1246802223496328, -2.165063509461099 -1.2499999999999956 C-2.092710102099878 -1.3753197776503583, -2.00812685533824 -1.4961171729167695, -1.9151111077974488 -1.606969024216344 C-1.8220953602566576 -1.7178208755159183, -1.7178208755159263 -1.82209536025665, -1.6069690242163523 -1.9151111077974416 C-1.4961171729167784 -2.0081268553382334, -1.3753197776503672 -2.0927101020998724, -1.2500000000000047 -2.1650635094610937 C-1.1246802223496422 -2.237416916822315, -0.9910302842862897 -2.299738906453198, -0.8550503583141776 -2.3492315519647686 C-0.7190704323420656 -2.3987241974763394, -0.5766288372196942 -2.4368913078579806, -0.43412044416733236 -2.462019382530519 C-0.29161205111497057 -2.4871474572030574, -0.1447068147224489 -2.4999999999999996, -7.120580697431198e-15 -2.5 C0.14470681472243463 -2.5000000000000004, 0.29161205111495647 -2.487147457203059, 0.4341204441673183 -2.4620193825305217 C0.5766288372196802 -2.436891307857984, 0.7190704323420518 -2.3987241974763442, 0.8550503583141642 -2.349231551964774 C0.9910302842862766 -2.2997389064532037, 1.1246802223496295 -2.2374169168223212, 1.2499999999999925 -2.165063509461101 C1.3753197776503554 -2.0927101020998804, 1.4961171729167668 -2.008126855338242, 1.6069690242163412 -1.915111107797451 C1.7178208755159157 -1.82209536025666, 1.8220953602566472 -1.7178208755159294, 1.915111107797439 -1.6069690242163557 C2.0081268553382308 -1.496117172916782, 2.09271010209987 -1.3753197776503712, 2.1650635094610915 -1.2500000000000089 C2.237416916822313 -1.1246802223496466, 2.299738906453196 -0.9910302842862939, 2.3492315519647673 -0.855050358314182 C2.3987241974763385 -0.71907043234207, 2.4368913078579792 -0.5766288372196986, 2.462019382530518 -0.4341204441673369 C2.487147457203057 -0.29161205111497523, 2.4936698970884197 -0.07235340736123454, 2.5 -1.1714553645825241e-14 C2.5063301029115803 0.07235340736121111, 2.50633010291158 -0.07235340736122292, 2.5 0" stroke="#9370DB" stroke-width="2" fill="none" stroke-dasharray="0 0" style=""/></g></g></g><g class="node  statediagram-state" id="my-svg-state-Validate-19" data-look="classic" transform="translate(283.9453125, 826)"><rect class="basic label-container" style="" rx="5" ry="5" x="-37.109375" y="-20" width="74.21875" height="40"/><g class="label" style="" transform="translate(-29.109375, -12)"><rect/><foreignObject width="58.21875" height="24"><div xmlns="http://www.w3.org/1999/xhtml" style="display: table-cell; white-space: nowrap; line-height: 1.5; max-width: 200px; text-align: center;"><span class="nodeLabel markdown-node-label"><p>Validate</p></span></div></foreignObject></g></g></g></g></g><defs><filter id="my-svg-drop-shadow" height="130%" width="130%"><feDropShadow dx="4" dy="4" stdDeviation="0" flood-opacity="0.06" flood-color="#000000"/></filter></defs><defs><filter id="my-svg-drop-shadow-small" height="150%" width="150%"><feDropShadow dx="2" dy="2" stdDeviation="0" flood-opacity="0.06" flood-color="#000000"/></filter></defs></svg>